<svg xmlns="http://www.w3.org/2000/svg" enable-background="new 0 0 128 128" viewBox="0 0 128 128"><path d="M118.1,83.9h-2.4c0.7-1.4,1-2.9,0.9-4.5c-0.2-4.7-3.9-8.6-5.4-10.1c-1.5-15.5-13.8-29-31.1-34.4c0.6-1.8,0.9-3.6,0.9-5.5
	c0-9.4-7.7-16.8-17.4-16.8c-9.8,0-17.4,7.5-17.4,17c0,1.9,0.3,3.6,0.9,5.3c-17,5.3-29.1,18.4-31,33.6c-1.9,0.7-4,2.8-5,5.4
	c-1.4,3.3-1,6.7,0.8,9.9H9.6C4.6,83.9,2,91.6,2,98.8c0,7.4,2.4,16.6,7.5,16.6h108.6c5,0,7.9-9,7.9-16.6
	C126,90.6,122.5,83.9,118.1,83.9z M63.6,16.7c7.5,0,13.4,5.6,13.4,12.8c0,2.1-1.4,6-1.5,6.1c-3.3-0.5-6.7-0.9-11.7-0.9
	c-4.7,0-9.3,0.5-12.2,0.9c0-0.1-1.5-3.9-1.5-5.9C50.2,22.4,56.1,16.7,63.6,16.7z M14.2,79.3c0-4.8,2.9-6.9,3.3-7H18
	c1,0,1.9-0.8,2-1.9C21.2,54,36.6,37.1,63.9,37.1c26.2,0,42.2,16.6,43.4,33.3c0,0.5,0.3,1,0.7,1.4c0,0,4.6,3.5,4.6,7.8
	c0,3.8-1.7,6.1-2.7,6.1h-92C16.7,85.7,14.2,83.1,14.2,79.3z M118.1,111.3l-108.6,0c-1-0.2-3.6-4.9-3.6-12.6c0-6,1.8-9.6,3-10.6
	h109.7c1.3,1,3.3,4.8,3.3,10.6C122,106.4,119.2,111.2,118.1,111.3z M38.5,56.7c-0.5-0.5-0.5-1.3,0-1.8c5.6-5.5,13-8.8,19.8-8.8
	c0.7,0,1.3,0.6,1.3,1.3s-0.6,1.3-1.3,1.3c-6.2,0-13,3-18.1,8.1C39.8,57.2,39,57.2,38.5,56.7z M31.2,66.4c0.8-2.2,1.8-4.3,3.1-6.3
	c0.4-0.6,1.1-0.7,1.7-0.4c0.6,0.4,0.7,1.2,0.4,1.7c-1.2,1.8-2.1,3.8-2.9,5.8c-0.2,0.7-0.9,1-1.6,0.8C31.3,67.8,31,67.1,31.2,66.4z
	 M107.9,104.3c0,0.7-0.6,1.3-1.3,1.3h-2.9c-0.7,0-1.3-0.6-1.3-1.3s0.6-1.3,1.3-1.3h2.9C107.4,103.1,107.9,103.6,107.9,104.3z
	 M29.6,75.9c0-1.4,0.1-2.8,0.3-4.2c0.1-0.7,0.7-1.2,1.4-1.1c0.7,0.1,1.2,0.7,1.1,1.4c-0.2,1.3-0.3,2.5-0.3,3.8
	c0,0.7-0.6,1.3-1.2,1.3C30.1,77.2,29.6,76.6,29.6,75.9z M84.3,104.3c0,0.7-0.6,1.3-1.3,1.3H62.7c-0.7,0-1.3-0.6-1.3-1.3
	s0.6-1.3,1.3-1.3H83C83.7,103.1,84.3,103.6,84.3,104.3z M100.1,104.3c0,0.7-0.6,1.3-1.3,1.3h-8.3c-0.7,0-1.3-0.6-1.3-1.3
	s0.6-1.3,1.3-1.3h8.3C99.6,103.1,100.1,103.6,100.1,104.3z M54.9,104.3c0,0.7-0.6,1.3-1.3,1.3h-37c-0.7,0-1.3-0.6-1.3-1.3
	s0.6-1.3,1.3-1.3h37C54.3,103.1,54.9,103.6,54.9,104.3z"/></svg>